<?xml version="1.0" ?><!DOCTYPE svg  PUBLIC '-//W3C//DTD SVG 1.1//EN'  'http://www.w3.org/Graphics/SVG/1.1/DTD/svg11.dtd'><svg enable-background="new 0 0 256 256" height="256px" version="1.1" viewBox="0 0 256 256" width="256px" x="0px" xml:space="preserve" xmlns="http://www.w3.org/2000/svg" xmlns:xlink="http://www.w3.org/1999/xlink" y="0px"><g id="Layer_1"><circle cx="128" cy="128" fill="#2AB1E0" r="128"/></g><g id="Layer_2"><path d="M138,193c0,5.521-4.477,10-10,10l0,0   c-5.523,0-10-4.479-10-10V63c0-5.523,4.477-10,10-10l0,0c5.523,0,10,4.477,10,10V193z" fill="#17819E" stroke="#F9F9FA" stroke-miterlimit="10" stroke-width="5"/><path d="M186.5,193c0,5.521-4.477,10-10,10l0,0   c-5.523,0-10-4.479-10-10V63c0-5.523,4.477-10,10-10l0,0c5.523,0,10,4.477,10,10V193z" fill="#17819E" stroke="#F9F9FA" stroke-miterlimit="10" stroke-width="5"/><path d="M88.638,193c0,5.521-4.477,10-10,10l0,0   c-5.523,0-10-4.479-10-10V63c0-5.523,4.477-10,10-10l0,0c5.523,0,10,4.477,10,10V193z" fill="#17819E" stroke="#F9F9FA" stroke-miterlimit="10" stroke-width="5"/><circle cx="78.638" cy="96.258" fill="#CBB92D" r="13.5" stroke="#F9F9FA" stroke-miterlimit="10" stroke-width="5"/><circle cx="128" cy="153" fill="#CBB92D" r="13.5" stroke="#F9F9FA" stroke-miterlimit="10" stroke-width="5"/><circle cx="176.5" cy="123.258" fill="#CBB92D" r="13.5" stroke="#F9F9FA" stroke-miterlimit="10" stroke-width="5"/></g></svg>